<?xml version="1.0" encoding="UTF-8"?>
<svg id="Layer_1" data-name="Layer 1" xmlns="http://www.w3.org/2000/svg" xmlns:xlink="http://www.w3.org/1999/xlink" viewBox="0 0 20 20">
  <defs>
    <style>
      .cls-1, .cls-2 {
        fill: none;
      }

      .cls-2 {
        stroke: #29292b;
        stroke-linecap: round;
        stroke-linejoin: round;
        stroke-width: 1.67px;
      }

      .cls-3 {
        clip-path: url(#clippath);
      }
    </style>
    <clipPath id="clippath">
      <rect class="cls-1" width="20" height="20"/>
    </clipPath>
  </defs>
  <g class="cls-3">
    <g>
      <path class="cls-2" d="M10,18.33c4.6,0,8.33-3.73,8.33-8.33S14.6,1.67,10,1.67,1.67,5.4,1.67,10s3.73,8.33,8.33,8.33Z"/>
      <path class="cls-2" d="M10,10.83c1.38,0,2.5-1.12,2.5-2.5s-1.12-2.5-2.5-2.5-2.5,1.12-2.5,2.5,1.12,2.5,2.5,2.5Z"/>
      <path class="cls-2" d="M5.83,17.22v-1.39c0-.44.18-.87.49-1.18.31-.31.74-.49,1.18-.49h5c.44,0,.87.18,1.18.49.31.31.49.74.49,1.18v1.39"/>
    </g>
  </g>
</svg>