<?xml version="1.0" encoding="UTF-8"?>
<svg id="Layer_1" data-name="Layer 1" xmlns="http://www.w3.org/2000/svg" xmlns:xlink="http://www.w3.org/1999/xlink" viewBox="0 0 20 20">
  <defs>
    <style>
      .cls-1, .cls-2 {
        fill: none;
      }

      .cls-2 {
        stroke: #1f65e8;
        stroke-linecap: round;
        stroke-linejoin: round;
        stroke-width: 1.67px;
      }

      .cls-3 {
        clip-path: url(#clippath);
      }
    </style>
    <clipPath id="clippath">
      <rect class="cls-1" width="20" height="20"/>
    </clipPath>
  </defs>
  <g class="cls-3">
    <g>
      <path class="cls-2" d="M8.33,10.83c.36.48.81.87,1.34,1.16.52.29,1.1.46,1.7.5.6.04,1.19-.04,1.75-.25s1.07-.54,1.49-.96l2.5-2.5c.76-.79,1.18-1.84,1.17-2.93,0-1.09-.45-2.14-1.22-2.91-.77-.77-1.82-1.21-2.91-1.22-1.09,0-2.15.41-2.93,1.17l-1.43,1.42"/>
      <path class="cls-2" d="M11.67,9.17c-.36-.48-.81-.87-1.34-1.16-.52-.29-1.1-.46-1.7-.5-.6-.04-1.19.04-1.75.25-.56.21-1.07.54-1.49.96l-2.5,2.5c-.76.79-1.18,1.84-1.17,2.93,0,1.09.45,2.14,1.22,2.91.77.77,1.82,1.21,2.91,1.22,1.09,0,2.14-.41,2.93-1.17l1.43-1.42"/>
    </g>
  </g>
</svg>