<?xml version="1.0" encoding="UTF-8"?>
<svg id="Layer_1" data-name="Layer 1" xmlns="http://www.w3.org/2000/svg" xmlns:xlink="http://www.w3.org/1999/xlink" viewBox="0 0 20 20">
  <defs>
    <style>
      .cls-1, .cls-2 {
        fill: none;
      }

      .cls-2 {
        stroke: #1f65e8;
        stroke-linecap: round;
        stroke-linejoin: round;
        stroke-width: 1.67px;
      }

      .cls-3 {
        clip-path: url(#clippath);
      }
    </style>
    <clipPath id="clippath">
      <rect class="cls-1" width="20" height="20"/>
    </clipPath>
  </defs>
  <g class="cls-3">
    <g>
      <path class="cls-2" d="M17.5,6.67l-1.88-1.88c-1.51-1.46-3.52-2.28-5.62-2.28-.83,0-1.64.13-2.39.39"/>
      <path class="cls-2" d="M6.67,13.33H2.5v4.17"/>
      <path class="cls-2" d="M2.5,10c0-2.07.83-3.95,2.2-5.3"/>
      <path class="cls-2" d="M2.5,13.33l1.88,1.88c1.51,1.46,3.52,2.28,5.62,2.28,2.07,0,3.95-.83,5.3-2.2"/>
      <path class="cls-2" d="M17.5,10c0,.83-.13,1.64-.39,2.39"/>
      <path class="cls-2" d="M17.5,2.5v4.17h-4.17"/>
      <path class="cls-2" d="M18.33,18.33L1.67,1.67"/>
    </g>
  </g>
</svg>