<?xml version="1.0" encoding="UTF-8"?>
<svg id="Layer_1" data-name="Layer 1" xmlns="http://www.w3.org/2000/svg" viewBox="0 0 20 20">
  <defs>
    <style>
      .cls-1 {
        fill: none;
        stroke: #29292b;
        stroke-linecap: round;
        stroke-linejoin: round;
        stroke-width: 1.67px;
      }
    </style>
  </defs>
  <path class="cls-1" d="M1.72,10.29c-.07-.19-.07-.39,0-.58.68-1.64,1.82-3.04,3.3-4.03,1.47-.99,3.21-1.51,4.98-1.51s3.51.53,4.98,1.51c1.47.99,2.62,2.39,3.3,4.03.07.19.07.39,0,.58-.68,1.64-1.82,3.04-3.3,4.03-1.47.99-3.21,1.51-4.98,1.51s-3.51-.53-4.98-1.51c-1.47-.99-2.62-2.39-3.3-4.03Z"/>
  <path class="cls-1" d="M10,12.5c1.38,0,2.5-1.12,2.5-2.5s-1.12-2.5-2.5-2.5-2.5,1.12-2.5,2.5,1.12,2.5,2.5,2.5Z"/>
</svg>