<?xml version="1.0" encoding="UTF-8"?>
<svg id="Layer_1" data-name="Layer 1" xmlns="http://www.w3.org/2000/svg" viewBox="0 0 20 20">
  <defs>
    <style>
      .cls-1 {
        fill: none;
        stroke: #29292b;
        stroke-linecap: round;
        stroke-linejoin: round;
        stroke-width: 1.67px;
      }
    </style>
  </defs>
  <path class="cls-1" d="M8.06,3.45c.05-.48.27-.93.63-1.26.36-.33.83-.51,1.31-.51s.95.18,1.31.51c.36.33.58.78.63,1.26.03.31.13.61.3.88s.4.48.67.64c.27.16.58.25.89.26.31.01.62-.05.91-.18.44-.2.94-.23,1.4-.08.46.15.85.46,1.09.88.24.42.32.91.22,1.39-.1.47-.38.89-.77,1.17-.26.18-.47.42-.61.7-.14.28-.22.59-.22.9s.08.62.22.9c.14.28.35.52.61.7.39.28.67.7.77,1.17.1.47.02.97-.22,1.39-.24.42-.63.73-1.09.88s-.96.12-1.4-.08c-.28-.13-.6-.19-.91-.18-.31.01-.62.1-.89.26-.27.16-.5.38-.67.64-.17.26-.27.56-.3.88-.05.48-.27.93-.63,1.26-.36.33-.83.51-1.31.51s-.95-.18-1.31-.51c-.36-.33-.58-.77-.63-1.26-.03-.31-.13-.61-.3-.88-.17-.26-.4-.48-.67-.64-.27-.16-.58-.25-.89-.26-.31-.01-.62.05-.91.18-.44.2-.94.23-1.4.08-.46-.15-.85-.46-1.09-.88-.24-.42-.32-.91-.22-1.39.1-.47.38-.89.77-1.17.26-.18.47-.42.61-.7.14-.28.22-.59.22-.9s-.08-.62-.22-.9c-.14-.28-.35-.52-.61-.7-.39-.28-.67-.7-.77-1.17-.1-.47-.02-.97.22-1.39.24-.42.63-.73,1.09-.88.46-.15.96-.12,1.4.08.28.13.6.19.91.18.31-.01.62-.1.89-.26.27-.16.5-.38.67-.64s.27-.56.3-.88"/>
  <path class="cls-1" d="M10,12.5c1.38,0,2.5-1.12,2.5-2.5s-1.12-2.5-2.5-2.5-2.5,1.12-2.5,2.5,1.12,2.5,2.5,2.5Z"/>
</svg>