<?xml version="1.0" encoding="UTF-8"?>
<svg id="Layer_1" data-name="Layer 1" xmlns="http://www.w3.org/2000/svg" viewBox="0 0 20 20">
  <defs>
    <style>
      .cls-1 {
        fill: none;
        stroke: #1f65e8;
        stroke-linecap: round;
        stroke-linejoin: round;
        stroke-width: 1.67px;
      }
    </style>
  </defs>
  <path class="cls-1" d="M5,18.33c-.44,0-.87-.18-1.18-.49-.31-.31-.49-.74-.49-1.18V3.33c0-.44.18-.87.49-1.18.31-.31.74-.49,1.18-.49h6.67c.26,0,.53.05.77.15.24.1.47.25.65.44l2.99,2.99c.19.19.34.41.44.65.1.24.15.51.15.77v10c0,.44-.18.87-.49,1.18-.31.31-.74.49-1.18.49H5Z"/>
  <path class="cls-1" d="M11.67,1.67v4.17c0,.22.09.43.24.59s.37.24.59.24h4.17"/>
  <path class="cls-1" d="M6.67,15v-.83"/>
  <path class="cls-1" d="M10,15v-5"/>
  <path class="cls-1" d="M13.33,15v-2.5"/>
</svg>