<?xml version="1.0" encoding="UTF-8"?>
<svg id="Layer_1" data-name="Layer 1" xmlns="http://www.w3.org/2000/svg" viewBox="0 0 20 20">
  <defs>
    <style>
      .cls-1 {
        fill: none;
        stroke: #1f65e8;
        stroke-linecap: round;
        stroke-linejoin: round;
        stroke-width: 1.67px;
      }
    </style>
  </defs>
  <path class="cls-1" d="M5,18.33c-.44,0-.87-.18-1.18-.49-.31-.31-.49-.74-.49-1.18V3.33c0-.44.18-.87.49-1.18.31-.31.74-.49,1.18-.49h6.67c.26,0,.53.05.77.15.24.1.47.25.65.44l2.99,2.99c.19.19.34.41.44.65.1.24.15.51.15.77v10c0,.44-.18.87-.49,1.18-.31.31-.74.49-1.18.49H5Z"/>
  <path class="cls-1" d="M10,14.17h0"/>
  <path class="cls-1" d="M7.58,7.5c.2-.55.59-1.01,1.09-1.31.51-.29,1.1-.4,1.68-.3.58.1,1.1.4,1.48.85.38.45.59,1.01.59,1.6,0,1.67-2.5,2.5-2.5,2.5"/>
</svg>