<?xml version="1.0" encoding="UTF-8"?>
<svg id="Layer_1" data-name="Layer 1" xmlns="http://www.w3.org/2000/svg" viewBox="0 0 20 20">
  <defs>
    <style>
      .cls-1 {
        fill: none;
        stroke: #1f65e8;
        stroke-linecap: round;
        stroke-linejoin: round;
        stroke-width: 1.67px;
      }
    </style>
  </defs>
  <path class="cls-1" d="M13.33,10.83l4.35,2.9c.06.04.14.07.21.07s.15-.01.22-.05c.07-.04.12-.09.16-.15.04-.06.06-.14.06-.21v-6.83c0-.07-.02-.15-.06-.21-.04-.06-.09-.12-.15-.15-.06-.04-.14-.06-.21-.06-.07,0-.15.02-.21.06l-4.37,2.55"/>
  <path class="cls-1" d="M11.67,5H3.33c-.92,0-1.67.75-1.67,1.67v6.67c0,.92.75,1.67,1.67,1.67h8.33c.92,0,1.67-.75,1.67-1.67v-6.67c0-.92-.75-1.67-1.67-1.67Z"/>
</svg>