<?xml version="1.0" encoding="UTF-8"?>
<svg id="Layer_1" data-name="Layer 1" xmlns="http://www.w3.org/2000/svg" viewBox="0 0 20 20">
  <defs>
    <style>
      .cls-1 {
        fill: none;
        stroke: #1f65e8;
        stroke-linecap: round;
        stroke-linejoin: round;
        stroke-width: 1.67px;
      }
    </style>
  </defs>
  <path class="cls-1" d="M14.17,15.83c-.22,0-.43-.09-.59-.24-.16-.16-.24-.37-.24-.59v-1.67c0-.44.18-.87.49-1.18.31-.31.74-.49,1.18-.49h1.67c.44,0,.87.18,1.18.49.31.31.49.74.49,1.18v1.67c0,.22-.09.43-.24.59-.16.16-.37.24-.59.24h-3.33Z"/>
  <path class="cls-1" d="M14.17,17.5v-1.67"/>
  <path class="cls-1" d="M15.83,11.67v-6.25c0-.77-.31-1.52-.85-2.06-.55-.55-1.29-.85-2.06-.85s-1.52.31-2.06.85c-.55.55-.85,1.29-.85,2.06v9.17c0,.77-.31,1.52-.85,2.06-.55.55-1.29.85-2.06.85s-1.52-.31-2.06-.85c-.55-.55-.85-1.29-.85-2.06v-6.25"/>
  <path class="cls-1" d="M17.5,17.5v-1.67"/>
  <path class="cls-1" d="M2.5,4.17v-1.67"/>
  <path class="cls-1" d="M3.33,8.33c-.44,0-.87-.18-1.18-.49-.31-.31-.49-.74-.49-1.18v-1.67c0-.22.09-.43.24-.59s.37-.24.59-.24h3.33c.22,0,.43.09.59.24s.24.37.24.59v1.67c0,.44-.18.87-.49,1.18-.31.31-.74.49-1.18.49h-1.67Z"/>
  <path class="cls-1" d="M5.83,4.17v-1.67"/>
</svg>