<?xml version="1.0" encoding="UTF-8"?>
<svg id="Layer_1" data-name="Layer 1" xmlns="http://www.w3.org/2000/svg" viewBox="0 0 53.1 47.26">
  <defs>
    <style>
      .cls-1 {
        fill: #1f65e8;
      }
    </style>
  </defs>
  <g>
    <path class="cls-1" d="M27.7.23c-.52-.31-1.17-.31-1.69,0l-8.05,4.74,15.73,9.25v18.73l8.02-4.72c.51-.3.83-.85.83-1.46V8.98L27.7.23Z"/>
    <path class="cls-1" d="M17.98,9.94l-7.43,4.29,11.68,6.87v13.9l7.41-4.29c.38-.23.62-.64.62-1.08v-13.2l-11.02-6.49c-.39-.23-.87-.23-1.25,0h-.01Z"/>
    <path class="cls-1" d="M18.69,32.41v-9.38l-7.96,4.69,7.96,4.69Z"/>
  </g>
  <g>
    <path class="cls-1" d="M20.57,43.09c-.17-.12-.37-.21-.59-.26s-.45-.09-.7-.09c-.35,0-.66.05-.92.16-.26.1-.48.25-.64.45-.17.19-.28.42-.34.69l1.12.09c.04-.14.13-.26.26-.36.13-.1.3-.14.52-.14s.37.05.48.15c.11.1.17.24.17.42v.02c0,.09-.03.16-.1.21s-.18.08-.34.11c-.16.02-.36.05-.61.07-.22.02-.42.06-.62.11-.2.05-.37.13-.52.23-.15.1-.27.23-.36.4s-.13.37-.13.61c0,.29.06.53.19.72.13.19.3.34.52.43.22.1.47.14.74.14.22,0,.41-.03.57-.09.16-.06.31-.14.42-.24.12-.1.21-.22.28-.36h.03v.61h1.15v-2.95c0-.26-.05-.48-.15-.67-.1-.19-.24-.34-.41-.46h0ZM19.93,45.61c0,.15-.04.29-.12.41-.08.12-.18.22-.32.29-.14.07-.29.11-.47.11s-.34-.04-.46-.13c-.12-.09-.18-.21-.18-.38,0-.11.03-.21.09-.28.06-.08.14-.14.25-.18.11-.05.23-.08.37-.1.07-.01.14-.02.22-.03.08-.01.16-.03.24-.04.08-.02.15-.04.22-.05.07-.02.12-.04.16-.07v.46h0Z"/>
    <polygon class="cls-1" points="13.31 45.25 13.23 45.25 11.63 41.34 10.11 41.34 10.11 47.17 11.3 47.17 11.3 43.36 11.35 43.36 12.86 47.14 13.68 47.14 15.19 43.37 15.24 43.37 15.24 47.17 16.43 47.17 16.43 41.34 14.91 41.34 13.31 45.25"/>
    <path class="cls-1" d="M3.42,44.88c.32-.15.56-.36.72-.64.17-.28.25-.61.25-1s-.08-.72-.25-1.01c-.16-.29-.4-.51-.71-.66-.31-.16-.69-.24-1.13-.24H0v5.83h1.23v-2.07h.9l1.11,2.07h1.36l-1.24-2.27s.04-.01.05-.02h0ZM1.24,42.35h.83c.24,0,.43.04.59.11.16.07.27.17.35.3.08.13.12.3.12.49s-.04.35-.12.48c-.08.13-.19.23-.35.29s-.35.1-.59.1h-.84v-1.76h0Z"/>
    <path class="cls-1" d="M8.29,43.02c-.32-.19-.7-.28-1.15-.28s-.83.09-1.15.28c-.32.19-.57.45-.74.79-.17.34-.26.73-.26,1.19s.09.84.26,1.18c.17.34.42.6.74.79.32.19.7.28,1.15.28s.83-.09,1.15-.28c.32-.19.57-.45.74-.79.17-.34.26-.73.26-1.18s-.09-.85-.26-1.19-.42-.6-.74-.79ZM7.96,45.67c-.07.2-.17.36-.3.47s-.3.17-.5.17-.37-.06-.51-.17c-.14-.12-.24-.27-.31-.47-.07-.2-.1-.43-.1-.68s.03-.48.1-.68c.07-.2.17-.36.31-.47.14-.12.31-.17.51-.17s.37.06.5.17.24.27.3.47c.07.2.11.43.11.68s-.04.48-.11.68Z"/>
    <path class="cls-1" d="M52.78,45.05c-.21-.19-.52-.33-.95-.42l-.79-.16c-.2-.04-.35-.1-.43-.17-.08-.07-.13-.16-.13-.26,0-.13.06-.23.19-.31s.29-.12.47-.12c.14,0,.26.02.36.07.1.05.18.11.25.18.06.08.1.16.12.26l1.11-.07c-.05-.4-.24-.72-.56-.96s-.75-.35-1.3-.35c-.37,0-.7.05-.98.16-.28.11-.49.27-.64.47-.15.2-.23.44-.23.72,0,.33.1.59.31.81s.53.36.95.44l.76.15c.19.04.33.09.42.16.09.07.14.16.14.27,0,.13-.07.24-.2.32-.13.08-.3.12-.51.12s-.39-.05-.53-.14c-.14-.09-.23-.23-.26-.4l-1.19.06c.06.42.26.75.6.99.34.24.81.36,1.38.36.38,0,.71-.06,1.01-.18.29-.12.52-.29.69-.51.17-.22.25-.47.25-.75,0-.31-.1-.57-.31-.76h0Z"/>
    <path class="cls-1" d="M42.99,41.01c-.18,0-.33.06-.46.18-.13.12-.19.26-.19.43s.06.31.19.43c.13.12.28.18.46.18s.33-.06.46-.18c.13-.12.19-.27.19-.43s-.06-.31-.19-.43c-.13-.12-.28-.18-.46-.18Z"/>
    <rect class="cls-1" x="42.38" y="42.8" width="1.21" height="4.37"/>
    <path class="cls-1" d="M47.97,43.29c-.19-.18-.4-.32-.65-.41-.25-.09-.52-.14-.81-.14-.43,0-.8.09-1.12.28-.32.19-.56.45-.74.8-.17.34-.26.73-.26,1.19s.09.86.26,1.2.42.59.74.78c.32.18.71.27,1.16.27.36,0,.68-.05.95-.16.28-.11.5-.27.68-.47.18-.2.29-.44.35-.7l-1.12-.07c-.04.11-.1.2-.18.28-.08.08-.18.13-.29.17-.11.04-.24.06-.37.06-.2,0-.38-.04-.53-.13-.15-.09-.26-.21-.34-.36s-.12-.34-.12-.56h2.98v-.33c0-.37-.05-.7-.16-.97-.1-.28-.25-.51-.44-.69h0ZM45.59,44.54c0-.16.04-.3.12-.43.08-.14.19-.25.33-.34.14-.09.31-.13.49-.13s.33.04.46.12.24.18.32.32c.08.13.11.29.11.46h-1.83Z"/>
    <path class="cls-1" d="M31.27,46.24c-.06.01-.11.01-.17.01-.08,0-.15-.01-.22-.04-.06-.02-.11-.07-.14-.13-.03-.06-.05-.15-.05-.26v-2.12h.82v-.91h-.82v-1.05h-1.21v1.05h-.6v.91h.6v2.28c0,.29.06.52.18.71s.29.33.51.41c.22.09.48.13.77.12.16,0,.29-.02.4-.05s.2-.05.26-.07l-.19-.9s-.07.01-.13.03h0Z"/>
    <path class="cls-1" d="M27.88,44.37c-.16-.14-.34-.25-.55-.35-.21-.09-.45-.17-.7-.23l-.52-.13c-.13-.03-.25-.06-.36-.1-.11-.04-.21-.09-.3-.14-.09-.06-.15-.12-.2-.2-.05-.08-.07-.17-.07-.27,0-.13.04-.24.11-.34.07-.1.18-.18.32-.23.14-.06.31-.09.51-.09.3,0,.53.06.7.19.17.13.27.3.29.53h1.18c0-.35-.1-.65-.28-.92s-.43-.47-.76-.62c-.32-.15-.7-.22-1.13-.22s-.81.07-1.14.22-.6.35-.79.62c-.19.26-.28.57-.28.93,0,.43.14.77.42,1.03s.67.44,1.17.56l.63.16c.21.05.39.11.54.17s.26.14.34.23.12.2.12.33c0,.14-.04.26-.13.37-.09.11-.21.19-.36.25s-.33.09-.54.09-.4-.03-.57-.1c-.17-.07-.3-.16-.4-.29-.1-.13-.15-.29-.17-.49h-1.19c.01.42.11.77.3,1.06s.47.5.82.64c.35.14.76.22,1.23.22s.88-.07,1.22-.21.59-.35.77-.61c.18-.26.27-.57.27-.93,0-.24-.05-.46-.13-.64-.09-.19-.21-.35-.36-.49h0Z"/>
    <path class="cls-1" d="M35.1,45.31c0,.2-.04.36-.12.49-.08.13-.18.23-.31.3-.13.07-.26.1-.41.1-.23,0-.41-.07-.55-.22-.14-.15-.21-.35-.21-.61v-2.57h-1.21v2.79c0,.34.06.63.19.88.13.24.3.43.52.57.22.13.48.2.77.2.33,0,.61-.08.84-.23.23-.16.39-.36.49-.62h.05v.8h1.16v-4.37h-1.21v2.51h0Z"/>
    <path class="cls-1" d="M40.18,43.53h-.04c-.05-.12-.13-.24-.23-.36-.1-.12-.23-.23-.4-.31-.16-.08-.37-.13-.61-.13-.32,0-.61.08-.89.25-.27.16-.48.41-.64.75-.16.33-.24.75-.24,1.25s.08.9.23,1.24c.16.33.37.59.64.76.27.17.57.26.9.26.24,0,.43-.04.6-.12.16-.08.3-.18.4-.29.1-.12.18-.24.24-.36h.05v.7h1.2v-5.83h-1.21s0,2.19,0,2.19ZM40.09,45.66c-.07.19-.18.34-.31.45-.13.11-.3.16-.49.16s-.37-.05-.5-.16c-.13-.11-.24-.26-.31-.45-.07-.2-.11-.42-.11-.67s.04-.47.11-.66.17-.34.31-.45c.14-.11.3-.16.5-.16s.36.05.5.16.24.25.31.44.11.42.11.68-.04.49-.11.68h0Z"/>
  </g>
</svg>