<?xml version="1.0" encoding="UTF-8"?>
<svg id="Layer_1" data-name="Layer 1" xmlns="http://www.w3.org/2000/svg" viewBox="0 0 64.9 57.76">
  <defs>
    <style>
      .cls-1 {
        fill: #1f65e8;
      }
    </style>
  </defs>
  <g>
    <path class="cls-1" d="M33.61,5.48c-.52-.31-1.17-.31-1.69,0l-8.05,4.74,15.73,9.25v18.73l8.02-4.72c.51-.3.83-.85.83-1.46V14.23l-14.84-8.75Z"/>
    <path class="cls-1" d="M23.89,15.19l-7.43,4.29,11.68,6.87v13.9l7.41-4.29c.38-.23.62-.64.62-1.08v-13.2l-11.02-6.49c-.39-.23-.87-.23-1.25,0,0,0-.01,0-.01,0Z"/>
    <path class="cls-1" d="M24.6,37.66v-9.38l-7.96,4.69,7.96,4.69Z"/>
  </g>
  <g>
    <path class="cls-1" d="M26.48,48.34c-.17-.12-.37-.21-.59-.26s-.45-.09-.7-.09c-.35,0-.66.05-.92.16-.26.1-.48.25-.64.45-.17.19-.28.42-.34.69l1.12.09c.04-.14.13-.26.26-.36.13-.1.3-.14.52-.14s.37.05.48.15c.11.1.17.24.17.42v.02c0,.09-.03.16-.1.21s-.18.08-.34.11c-.16.02-.36.05-.61.07-.22.02-.42.06-.62.11s-.37.13-.52.23-.27.23-.36.4-.13.37-.13.61c0,.29.06.53.19.72.13.19.3.34.52.43.22.1.47.14.74.14.22,0,.41-.03.57-.09s.31-.14.42-.24c.12-.1.21-.22.28-.36h.03v.61h1.15v-2.95c0-.26-.05-.48-.15-.67s-.24-.34-.41-.46h-.02ZM25.84,50.86c0,.15-.04.29-.12.41s-.18.22-.32.29-.29.11-.47.11-.34-.04-.46-.13c-.12-.09-.18-.21-.18-.38,0-.11.03-.21.09-.28.06-.08.14-.14.25-.18.11-.05.23-.08.37-.1.07,0,.14-.02.22-.03s.16-.03.24-.04c.08-.02.15-.04.22-.05.07-.02.12-.04.16-.07v.46h0Z"/>
    <polygon class="cls-1" points="19.22 50.5 19.14 50.5 17.54 46.59 16.02 46.59 16.02 52.42 17.21 52.42 17.21 48.61 17.26 48.61 18.77 52.39 19.59 52.39 21.1 48.62 21.15 48.62 21.15 52.42 22.34 52.42 22.34 46.59 20.82 46.59 19.22 50.5"/>
    <path class="cls-1" d="M9.33,50.13c.32-.15.56-.36.72-.64.17-.28.25-.61.25-1s-.08-.72-.25-1.01c-.16-.29-.4-.51-.71-.66-.31-.16-.69-.24-1.13-.24h-2.3v5.83h1.23v-2.07h.9l1.11,2.07h1.36l-1.24-2.27s.04,0,.05-.02h0ZM7.15,47.6h.83c.24,0,.43.04.59.11.16.07.27.17.35.3s.12.3.12.49-.04.35-.12.48-.19.23-.35.29-.35.1-.59.1h-.84v-1.76h0Z"/>
    <path class="cls-1" d="M14.2,48.27c-.32-.19-.7-.28-1.15-.28s-.83.09-1.15.28-.57.45-.74.79c-.17.34-.26.73-.26,1.19s.09.84.26,1.18.42.6.74.79c.32.19.7.28,1.15.28s.83-.09,1.15-.28c.32-.19.57-.45.74-.79s.26-.73.26-1.18-.09-.85-.26-1.19-.42-.6-.74-.79ZM13.87,50.92c-.07.2-.17.36-.3.47s-.3.17-.5.17-.37-.06-.51-.17c-.14-.12-.24-.27-.31-.47s-.1-.43-.1-.68.03-.48.1-.68c.07-.2.17-.36.31-.47.14-.12.31-.17.51-.17s.37.06.5.17.24.27.3.47c.07.2.11.43.11.68s-.04.48-.11.68Z"/>
    <path class="cls-1" d="M58.69,50.3c-.21-.19-.52-.33-.95-.42l-.79-.16c-.2-.04-.35-.1-.43-.17s-.13-.16-.13-.26c0-.13.06-.23.19-.31s.29-.12.47-.12c.14,0,.26.02.36.07.1.05.18.11.25.18.06.08.1.16.12.26l1.11-.07c-.05-.4-.24-.72-.56-.96s-.75-.35-1.3-.35c-.37,0-.7.05-.98.16s-.49.27-.64.47c-.15.2-.23.44-.23.72,0,.33.1.59.31.81s.53.36.95.44l.76.15c.19.04.33.09.42.16.09.07.14.16.14.27,0,.13-.07.24-.2.32-.13.08-.3.12-.51.12s-.39-.05-.53-.14-.23-.23-.26-.4l-1.19.06c.06.42.26.75.6.99s.81.36,1.38.36c.38,0,.71-.06,1.01-.18.29-.12.52-.29.69-.51.17-.22.25-.47.25-.75,0-.31-.1-.57-.31-.76h0v.02Z"/>
    <path class="cls-1" d="M48.9,46.26c-.18,0-.33.06-.46.18-.13.12-.19.26-.19.43s.06.31.19.43c.13.12.28.18.46.18s.33-.06.46-.18c.13-.12.19-.27.19-.43s-.06-.31-.19-.43c-.13-.12-.28-.18-.46-.18Z"/>
    <rect class="cls-1" x="48.29" y="48.05" width="1.21" height="4.37"/>
    <path class="cls-1" d="M53.88,48.54c-.19-.18-.4-.32-.65-.41s-.52-.14-.81-.14c-.43,0-.8.09-1.12.28s-.56.45-.74.8c-.17.34-.26.73-.26,1.19s.09.86.26,1.2.42.59.74.78c.32.18.71.27,1.16.27.36,0,.68-.05.95-.16.28-.11.5-.27.68-.47s.29-.44.35-.7l-1.12-.07c-.04.11-.1.2-.18.28-.08.08-.18.13-.29.17-.11.04-.24.06-.37.06-.2,0-.38-.04-.53-.13-.15-.09-.26-.21-.34-.36s-.12-.34-.12-.56h2.98v-.33c0-.37-.05-.7-.16-.97-.1-.28-.25-.51-.44-.69h0v-.04ZM51.5,49.79c0-.16.04-.3.12-.43.08-.14.19-.25.33-.34.14-.09.31-.13.49-.13s.33.04.46.12.24.18.32.32c.08.13.11.29.11.46,0,0-1.83,0-1.83,0Z"/>
    <path class="cls-1" d="M37.18,51.49c-.06,0-.11,0-.17,0-.08,0-.15,0-.22-.04-.06-.02-.11-.07-.14-.13-.03-.06-.05-.15-.05-.26v-2.12h.82v-.91h-.82v-1.05h-1.21v1.05h-.6v.91h.6v2.28c0,.29.06.52.18.71s.29.33.51.41c.22.09.48.13.77.12.16,0,.29-.02.4-.05s.2-.05.26-.07l-.19-.9s-.07,0-.13.03h-.01Z"/>
    <path class="cls-1" d="M33.79,49.62c-.16-.14-.34-.25-.55-.35-.21-.09-.45-.17-.7-.23l-.52-.13c-.13-.03-.25-.06-.36-.1-.11-.04-.21-.09-.3-.14-.09-.06-.15-.12-.2-.2-.05-.08-.07-.17-.07-.27,0-.13.04-.24.11-.34s.18-.18.32-.23c.14-.06.31-.09.51-.09.3,0,.53.06.7.19.17.13.27.3.29.53h1.18c0-.35-.1-.65-.28-.92s-.43-.47-.76-.62c-.32-.15-.7-.22-1.13-.22s-.81.07-1.14.22-.6.35-.79.62c-.19.26-.28.57-.28.93,0,.43.14.77.42,1.03s.67.44,1.17.56l.63.16c.21.05.39.11.54.17s.26.14.34.23.12.2.12.33c0,.14-.04.26-.13.37-.09.11-.21.19-.36.25s-.33.09-.54.09-.4-.03-.57-.1-.3-.16-.4-.29-.15-.29-.17-.49h-1.19c.01.42.11.77.3,1.06s.47.5.82.64.76.22,1.23.22.88-.07,1.22-.21.59-.35.77-.61c.18-.26.27-.57.27-.93,0-.24-.05-.46-.13-.64-.09-.19-.21-.35-.36-.49h-.01Z"/>
    <path class="cls-1" d="M41.01,50.56c0,.2-.04.36-.12.49-.08.13-.18.23-.31.3s-.26.1-.41.1c-.23,0-.41-.07-.55-.22s-.21-.35-.21-.61v-2.57h-1.21v2.79c0,.34.06.63.19.88.13.24.3.43.52.57.22.13.48.2.77.2.33,0,.61-.08.84-.23.23-.16.39-.36.49-.62h.05v.8h1.16v-4.37h-1.21v2.51h0v-.02Z"/>
    <path class="cls-1" d="M46.09,48.78h-.04c-.05-.12-.13-.24-.23-.36s-.23-.23-.4-.31c-.16-.08-.37-.13-.61-.13-.32,0-.61.08-.89.25-.27.16-.48.41-.64.75-.16.33-.24.75-.24,1.25s.08.9.23,1.24c.16.33.37.59.64.76s.57.26.9.26c.24,0,.43-.04.6-.12.16-.08.3-.18.4-.29.1-.12.18-.24.24-.36h.05v.7h1.2v-5.83h-1.21v2.19ZM46,50.91c-.07.19-.18.34-.31.45s-.3.16-.49.16-.37-.05-.5-.16-.24-.26-.31-.45c-.07-.2-.11-.42-.11-.67s.04-.47.11-.66.17-.34.31-.45c.14-.11.3-.16.5-.16s.36.05.5.16.24.25.31.44.11.42.11.68-.04.49-.11.68h0v-.02Z"/>
  </g>
</svg>