<?xml version="1.0" encoding="UTF-8"?>
<svg id="Layer_1" data-name="Layer 1" xmlns="http://www.w3.org/2000/svg" viewBox="0 0 20 20">
  <defs>
    <style>
      .cls-1 {
        fill: none;
        stroke: #29292b;
        stroke-linecap: round;
        stroke-linejoin: round;
        stroke-width: 1.67px;
      }
    </style>
  </defs>
  <path class="cls-1" d="M12.5,10h-4.17"/>
  <path class="cls-1" d="M12.5,6.67h-4.17"/>
  <path class="cls-1" d="M15.83,14.17V4.17c0-.44-.18-.87-.49-1.18-.31-.31-.74-.49-1.18-.49H3.33"/>
  <path class="cls-1" d="M6.67,17.5h10c.44,0,.87-.18,1.18-.49.31-.31.49-.74.49-1.18v-.83c0-.22-.09-.43-.24-.59-.16-.16-.37-.24-.59-.24h-8.33c-.22,0-.43.09-.59.24-.16.16-.24.37-.24.59v.83c0,.44-.18.87-.49,1.18-.31.31-.74.49-1.18.49ZM6.67,17.5c-.44,0-.87-.18-1.18-.49-.31-.31-.49-.74-.49-1.18V4.17c0-.44-.18-.87-.49-1.18-.31-.31-.74-.49-1.18-.49s-.87.18-1.18.49c-.31.31-.49.74-.49,1.18v1.67c0,.22.09.43.24.59.16.16.37.24.59.24h2.5"/>
</svg>