<?xml version="1.0" encoding="UTF-8"?>
<svg id="Layer_1" data-name="Layer 1" xmlns="http://www.w3.org/2000/svg" viewBox="0 0 20 20">
  <defs>
    <style>
      .cls-1 {
        fill: none;
        stroke: #29292b;
        stroke-linecap: round;
        stroke-linejoin: round;
        stroke-width: 1.67px;
      }
    </style>
  </defs>
  <path class="cls-1" d="M10,2.5v15"/>
  <path class="cls-1" d="M15.83,6.67l2.5,6.67c-.72.54-1.6.83-2.5.83s-1.78-.29-2.5-.83l2.5-6.67ZM15.83,6.67v-.83"/>
  <path class="cls-1" d="M2.5,5.83h.83c2.33,0,4.61-.57,6.67-1.67,2.05,1.09,4.34,1.67,6.67,1.67h.83"/>
  <path class="cls-1" d="M4.17,6.67l2.5,6.67c-.72.54-1.6.83-2.5.83s-1.78-.29-2.5-.83l2.5-6.67ZM4.17,6.67v-.83"/>
  <path class="cls-1" d="M5.83,17.5h8.33"/>
</svg>