<?xml version="1.0" encoding="UTF-8"?>
<svg id="Layer_1" data-name="Layer 1" xmlns="http://www.w3.org/2000/svg" viewBox="0 0 202.46 35">
  <defs>
    <style>
      .cls-1 {
        fill: #1f65e8;
      }
    </style>
  </defs>
  <g>
    <path class="cls-1" d="M17.15.23c-.52-.31-1.17-.31-1.69,0L7.41,4.97l15.73,9.25v18.73l8.02-4.72c.51-.3.83-.85.83-1.46V8.98L17.15.23Z"/>
    <path class="cls-1" d="M7.43,9.94L0,14.23l11.68,6.87v13.9l7.41-4.29c.38-.23.62-.64.62-1.08v-13.2l-11.02-6.49c-.39-.23-.87-.23-1.25,0Z"/>
    <path class="cls-1" d="M8.14,32.41v-9.38L.18,27.72l7.96,4.69Z"/>
  </g>
  <g>
    <path class="cls-1" d="M105.09,13.79c-.52-.36-1.11-.62-1.78-.79-.67-.17-1.36-.26-2.09-.26-1.05,0-1.97.16-2.76.48-.79.31-1.43.76-1.93,1.35-.5.58-.84,1.27-1.01,2.06l3.36.27c.12-.43.38-.79.77-1.07.39-.29.91-.43,1.56-.43.62,0,1.1.15,1.43.44.34.3.51.71.51,1.25v.05c0,.28-.1.49-.31.63-.21.14-.55.25-1.02.32-.47.07-1.08.14-1.84.22-.65.06-1.27.17-1.86.32-.59.15-1.11.38-1.57.68-.46.3-.82.7-1.09,1.19-.27.49-.4,1.11-.4,1.83,0,.86.19,1.59.56,2.16.38.57.9,1.01,1.55,1.3.65.29,1.4.43,2.23.43.65,0,1.22-.09,1.71-.26.49-.18.92-.42,1.27-.72.35-.31.63-.67.84-1.08h.1v1.82h3.44v-8.83c0-.78-.15-1.45-.45-2-.3-.56-.71-1.02-1.24-1.38ZM103.17,21.32c0,.46-.12.87-.35,1.24-.23.36-.55.65-.96.87-.41.21-.88.32-1.41.32s-1.02-.13-1.38-.38c-.36-.26-.54-.64-.54-1.13,0-.34.09-.62.26-.85.18-.23.42-.42.74-.55.32-.14.69-.24,1.12-.3.2-.03.42-.06.66-.09.24-.04.49-.08.73-.13.24-.05.46-.11.66-.16.2-.06.36-.13.47-.2v1.39Z"/>
    <polygon class="cls-1" points="83.34 20.27 83.13 20.27 78.33 8.55 73.77 8.55 73.77 26 77.35 26 77.35 14.6 77.5 14.6 82.02 25.91 84.45 25.91 88.97 14.64 89.12 14.64 89.12 26 92.7 26 92.7 8.55 88.14 8.55 83.34 20.27"/>
    <path class="cls-1" d="M53.74,19.15c.95-.44,1.67-1.08,2.17-1.91.5-.84.75-1.83.75-2.99s-.25-2.16-.74-3.01c-.49-.86-1.2-1.52-2.14-1.99-.93-.47-2.06-.71-3.38-.71h-6.89v17.45h3.69v-6.19h2.69l3.31,6.19h4.07l-3.71-6.79c.05-.02.11-.04.16-.06ZM47.21,11.56h2.49c.71,0,1.3.11,1.76.32.47.2.82.51,1.05.9.23.4.35.89.35,1.47s-.12,1.05-.35,1.44c-.23.39-.57.68-1.04.87-.47.19-1.05.29-1.76.29h-2.51v-5.28Z"/>
    <path class="cls-1" d="M68.33,13.59c-.96-.57-2.1-.85-3.43-.85s-2.47.28-3.43.85c-.96.56-1.7,1.35-2.22,2.37-.52,1.01-.78,2.19-.78,3.55s.26,2.52.78,3.54c.52,1.01,1.26,1.8,2.22,2.37.97.56,2.11.84,3.43.84s2.47-.28,3.43-.84c.97-.57,1.71-1.36,2.23-2.37.52-1.02.78-2.2.78-3.54s-.26-2.53-.78-3.55c-.52-1.02-1.27-1.81-2.23-2.37ZM67.34,21.52c-.2.6-.51,1.07-.91,1.41-.4.34-.91.51-1.51.51s-1.12-.17-1.53-.51c-.41-.35-.72-.82-.93-1.41-.2-.6-.31-1.28-.31-2.04s.1-1.44.31-2.04c.21-.6.52-1.07.93-1.41.41-.35.93-.52,1.53-.52s1.11.17,1.51.52c.4.35.71.82.91,1.41.21.6.32,1.28.32,2.04s-.11,1.44-.32,2.04Z"/>
    <path class="cls-1" d="M201.52,19.66c-.62-.58-1.57-1-2.85-1.26l-2.37-.48c-.61-.13-1.04-.3-1.29-.52-.25-.22-.38-.48-.38-.79,0-.39.19-.7.58-.94.39-.24.86-.36,1.42-.36.42,0,.78.07,1.08.21.31.14.55.32.74.55.19.23.31.48.37.77l3.32-.2c-.16-1.2-.72-2.16-1.67-2.86-.95-.7-2.25-1.05-3.9-1.05-1.12,0-2.1.16-2.93.49-.83.33-1.48.8-1.93,1.41-.46.61-.68,1.33-.68,2.17,0,.98.31,1.78.93,2.41.62.63,1.58,1.07,2.85,1.33l2.27.45c.57.11.99.28,1.26.49.27.21.41.48.42.81,0,.39-.2.71-.6.96-.39.24-.9.37-1.53.37s-1.18-.14-1.59-.41c-.41-.28-.68-.68-.78-1.21l-3.57.19c.18,1.25.77,2.24,1.8,2.97,1.03.72,2.41,1.08,4.14,1.08,1.14,0,2.14-.18,3.01-.54.88-.36,1.56-.87,2.06-1.52.51-.65.76-1.4.76-2.26,0-.94-.31-1.7-.94-2.28Z"/>
    <path class="cls-1" d="M172.21,7.55c-.54,0-1,.18-1.39.55-.38.36-.57.79-.57,1.29s.19.94.57,1.3c.39.36.85.54,1.39.54s1-.18,1.38-.54c.39-.36.58-.8.58-1.3s-.19-.93-.58-1.29c-.38-.36-.84-.55-1.38-.55Z"/>
    <rect class="cls-1" x="170.39" y="12.91" width="3.63" height="13.09"/>
    <path class="cls-1" d="M187.12,14.39c-.56-.55-1.21-.96-1.96-1.24-.74-.28-1.55-.42-2.41-.42-1.28,0-2.4.28-3.36.85-.95.57-1.68,1.36-2.21,2.38-.52,1.02-.78,2.2-.78,3.55s.26,2.58.78,3.59c.52,1.01,1.27,1.78,2.23,2.34.97.55,2.13.82,3.48.82,1.08,0,2.03-.16,2.85-.49.83-.34,1.51-.8,2.03-1.4.53-.6.88-1.31,1.05-2.11l-3.36-.22c-.12.33-.31.61-.54.84-.24.23-.53.4-.86.51-.34.11-.71.17-1.11.17-.61,0-1.13-.13-1.58-.38-.44-.26-.79-.62-1.03-1.09-.24-.47-.36-1.03-.36-1.68h0s8.91,0,8.91,0v-1c0-1.11-.16-2.09-.47-2.91-.31-.84-.75-1.53-1.31-2.08ZM180,18.13c.02-.47.13-.9.35-1.29.24-.43.57-.76.99-1.01.43-.26.92-.38,1.47-.38s.99.12,1.39.35c.4.23.72.54.95.95.23.4.34.87.34,1.39h-5.48Z"/>
    <path class="cls-1" d="M137.11,23.21c-.17.03-.34.04-.51.04-.24,0-.46-.04-.65-.11-.18-.07-.32-.2-.43-.38-.1-.19-.15-.45-.15-.78v-6.34h2.46v-2.73h-2.46v-3.14h-3.63v3.14h-1.79v2.73h1.79v6.82c0,.86.17,1.57.54,2.13s.87.98,1.53,1.24c.66.27,1.43.38,2.3.35.47-.02.87-.07,1.2-.14.33-.07.59-.14.77-.2l-.57-2.7c-.09.02-.22.04-.39.08Z"/>
    <path class="cls-1" d="M126.97,17.61c-.47-.41-1.02-.76-1.65-1.05-.64-.28-1.34-.51-2.1-.68l-1.57-.38c-.38-.09-.74-.19-1.07-.31-.34-.12-.63-.27-.89-.43-.26-.17-.46-.37-.61-.61-.14-.23-.21-.51-.2-.82,0-.38.11-.71.32-1.01.22-.3.54-.53.95-.69.41-.17.92-.26,1.53-.26.89,0,1.59.19,2.1.57.52.38.81.91.88,1.6h3.54c-.02-1.04-.3-1.95-.84-2.74s-1.3-1.41-2.27-1.85c-.97-.44-2.1-.66-3.39-.66s-2.41.22-3.41.66c-1,.44-1.79,1.06-2.36,1.85-.57.79-.85,1.71-.84,2.77,0,1.29.42,2.32,1.27,3.08s2.01,1.32,3.49,1.68l1.9.48c.64.15,1.17.32,1.61.51.44.19.78.41,1.01.68.23.27.35.6.35.99,0,.42-.13.79-.38,1.12-.26.32-.62.58-1.08.76-.46.18-1,.27-1.63.27s-1.21-.1-1.71-.29c-.5-.2-.9-.49-1.2-.88-.3-.39-.46-.88-.5-1.47h-3.57c.03,1.26.33,2.31.91,3.16.58.85,1.4,1.49,2.44,1.92,1.05.43,2.27.65,3.68.65s2.63-.21,3.64-.64c1.01-.43,1.78-1.04,2.32-1.82.54-.78.81-1.71.82-2.78,0-.73-.14-1.37-.4-1.93-.26-.56-.62-1.05-1.08-1.47Z"/>
    <path class="cls-1" d="M148.59,20.43c0,.59-.11,1.08-.35,1.47-.23.4-.54.7-.92.9-.38.2-.79.3-1.23.3-.69,0-1.24-.22-1.65-.67-.41-.45-.62-1.06-.62-1.83v-7.69h-3.63v8.34c0,1.02.19,1.9.56,2.63.38.73.9,1.3,1.56,1.7.66.4,1.43.6,2.31.6.98,0,1.82-.23,2.5-.7.69-.47,1.18-1.08,1.47-1.85h.14v2.38h3.48v-13.09h-3.63v7.52Z"/>
    <path class="cls-1" d="M163.78,15.11h-.11c-.16-.35-.39-.71-.7-1.07-.3-.37-.7-.68-1.19-.92-.49-.25-1.1-.38-1.83-.38-.96,0-1.84.25-2.65.75-.8.49-1.44,1.24-1.93,2.24-.48.99-.72,2.24-.72,3.74s.23,2.69.7,3.7c.47,1,1.11,1.76,1.91,2.28.81.51,1.71.77,2.7.77.71,0,1.3-.12,1.79-.35.49-.23.89-.53,1.2-.88.31-.36.55-.72.72-1.08h.15v2.1h3.58V8.55h-3.62v6.56ZM163.52,21.49c-.22.58-.53,1.03-.94,1.36-.4.32-.9.48-1.48.48s-1.1-.16-1.51-.49c-.4-.33-.71-.78-.93-1.36-.21-.59-.32-1.26-.32-2.02s.11-1.42.32-1.99c.21-.57.52-1.02.93-1.35.41-.32.91-.49,1.51-.49s1.08.16,1.49.47c.41.31.72.76.94,1.33.22.57.32,1.25.32,2.03s-.11,1.46-.33,2.04Z"/>
  </g>
</svg>