<?xml version="1.0" encoding="UTF-8"?>
<svg id="Layer_1" data-name="Layer 1" xmlns="http://www.w3.org/2000/svg" xmlns:xlink="http://www.w3.org/1999/xlink" viewBox="0 0 20 20">
  <defs>
    <style>
      .cls-1, .cls-2 {
        fill: none;
      }

      .cls-2 {
        stroke: #29292b;
        stroke-linecap: round;
        stroke-linejoin: round;
        stroke-width: 1.67px;
      }

      .cls-3 {
        clip-path: url(#clippath);
      }
    </style>
    <clipPath id="clippath">
      <rect class="cls-1" width="20" height="20"/>
    </clipPath>
  </defs>
  <g class="cls-3">
    <g>
      <path class="cls-2" d="M17.5,10c.46,0,.84-.37.79-.83-.19-1.91-1.04-3.7-2.4-5.06-1.36-1.36-3.15-2.21-5.06-2.4-.46-.05-.83.33-.83.79v6.67c0,.22.09.43.24.59.16.16.37.24.59.24h6.67Z"/>
      <path class="cls-2" d="M17.67,13.24c-.53,1.25-1.36,2.36-2.42,3.22-1.06.86-2.31,1.45-3.64,1.71-1.34.26-2.72.2-4.02-.19-1.3-.39-2.49-1.1-3.46-2.05-.97-.96-1.69-2.14-2.09-3.44-.41-1.3-.49-2.68-.24-4.02.25-1.34.82-2.59,1.67-3.66.85-1.07,1.94-1.91,3.19-2.45"/>
    </g>
  </g>
</svg>