<?xml version="1.0" encoding="UTF-8"?>
<svg id="Layer_1" data-name="Layer 1" xmlns="http://www.w3.org/2000/svg" viewBox="0 0 20 20">
  <defs>
    <style>
      .cls-1 {
        fill: none;
        stroke: #1f65e8;
        stroke-linecap: round;
        stroke-linejoin: round;
        stroke-width: 1.67px;
      }
    </style>
  </defs>
  <path class="cls-1" d="M12.5,17.92v-6.67c0-.22-.09-.43-.24-.59-.16-.16-.37-.24-.59-.24h-3.33c-.22,0-.43.09-.59.24-.16.16-.24.37-.24.59v6.67"/>
  <path class="cls-1" d="M2.5,8.75c0-.24.05-.48.15-.7.1-.22.25-.41.44-.57l5.83-5c.3-.25.68-.39,1.08-.39s.77.14,1.08.39l5.83,5c.19.16.33.35.44.57.1.22.15.46.15.7v7.5c0,.44-.18.87-.49,1.18-.31.31-.74.49-1.18.49H4.17c-.44,0-.87-.18-1.18-.49-.31-.31-.49-.74-.49-1.18v-7.5Z"/>
</svg>