<?xml version="1.0" encoding="UTF-8"?>
<svg id="Layer_1" data-name="Layer 1" xmlns="http://www.w3.org/2000/svg" viewBox="0 0 20 20">
  <defs>
    <style>
      .cls-1 {
        fill: none;
        stroke: #29292b;
        stroke-linecap: round;
        stroke-linejoin: round;
        stroke-width: 1.67px;
      }
    </style>
  </defs>
  <path class="cls-1" d="M5,15h6.67"/>
  <path class="cls-1" d="M2.5,18.33h15"/>
  <path class="cls-1" d="M11.67,18.33c1.55,0,3.03-.61,4.12-1.71,1.09-1.09,1.71-2.58,1.71-4.12s-.61-3.03-1.71-4.12c-1.09-1.09-2.58-1.71-4.12-1.71h-.83"/>
  <path class="cls-1" d="M7.5,11.67h1.67"/>
  <path class="cls-1" d="M7.5,10c-.44,0-.87-.18-1.18-.49-.31-.31-.49-.74-.49-1.18v-3.33h5v3.33c0,.44-.18.87-.49,1.18-.31.31-.74.49-1.18.49h-1.67Z"/>
  <path class="cls-1" d="M10,5v-2.5c0-.22-.09-.43-.24-.59-.16-.16-.37-.24-.59-.24h-1.67c-.22,0-.43.09-.59.24-.16.16-.24.37-.24.59v2.5"/>
</svg>